<svg xmlns="http://www.w3.org/2000/svg" id="Icons" viewBox="0 0 60 60"><path d="M58.131,54.013l1.58-12.641A3,3,0,0,0,56.734,38H54.158A27.7,27.7,0,0,0,56,28,28.045,28.045,0,0,0,34.628.8L34.12.525l-.075.14A27.989,27.989,0,0,0,17.266,53.844,19.079,19.079,0,0,0,17,57a3,3,0,0,0,3,3H58a2,2,0,0,0,2-2V56A2,2,0,0,0,58.131,54.013Zm-.647-13.675a.987.987,0,0,1,.243.786L56.117,54H37.883l-1.61-12.876A1,1,0,0,1,37.266,40H56.734A.987.987,0,0,1,57.484,40.338ZM43,28v2.82a3,3,0,0,0-2.546-2.96A11.1,11.1,0,0,1,35.4,25.9a2.3,2.3,0,0,0-2.8.009,11.33,11.33,0,0,1-5.046,1.954A3,3,0,0,0,25,30.82V28a9,9,0,0,1,18,0ZM26,33a1,1,0,0,0,1-1V30.82a.989.989,0,0,1,.835-.981,13.067,13.067,0,0,0,5.974-2.346.3.3,0,0,1,.373-.009,13.062,13.062,0,0,0,5.984,2.355A.989.989,0,0,1,41,30.82V32a1,1,0,0,0,1,1,1,1,0,0,1,0,2,1,1,0,0,0-1,1,8.716,8.716,0,0,1-.306,2H37.266a3,3,0,0,0-2.977,3.372l.2,1.575A2.569,2.569,0,0,1,34,43c-1.618,0-5.445-2.165-6.11-3.456A8.648,8.648,0,0,1,27,36.01,1,1,0,0,0,26,35a1,1,0,0,1,0-2Zm6,11.6a6.447,6.447,0,0,0,2,.4,4.554,4.554,0,0,0,.733-.078l.228,1.826A1.991,1.991,0,0,1,32,45ZM52,38H42.753a11.129,11.129,0,0,0,.192-1.152,3.01,3.01,0,0,0,2.017-2.38c1.018-1.021,4.175-4.766,7.68-14.743A25.918,25.918,0,0,1,52,38Zm-.5-21.127C48.937,24.722,46.522,29.041,45,31.237V28a11,11,0,0,0-4.923-9.161,3.515,3.515,0,0,0,.916-2.126,3.38,3.38,0,0,0-.939-2.539A3.743,3.743,0,0,0,37.34,13H31.683a1.2,1.2,0,0,1-1.059-1.771l4.443-8.245A26.114,26.114,0,0,1,51.494,16.873ZM6.783,13H13.66a1.32,1.32,0,0,1,1.1,2.057l-3.065,4.611A4.009,4.009,0,0,0,11,21.93,2.073,2.073,0,0,1,8.93,24H2.308A25.851,25.851,0,0,1,6.783,13Zm-4.7,13H8.93A4.075,4.075,0,0,0,13,21.93a2.02,2.02,0,0,1,.353-1.146l3.068-4.618A3.32,3.32,0,0,0,13.66,11H8.352A25.943,25.943,0,0,1,33.057,2.5L28.863,10.28A3.2,3.2,0,0,0,31.683,15H37.34a1.737,1.737,0,0,1,1.258.545,1.4,1.4,0,0,1,.4,1.048,1.548,1.548,0,0,1-.831,1.232A10.989,10.989,0,0,0,23,28v6a3,3,0,0,0,2.054,2.847,10.59,10.59,0,0,0,1.057,3.611A9.871,9.871,0,0,0,30,43.715v.465l-5.767,1.154a8.333,8.333,0,0,0-1.257.368c.012-.176.024-.353.024-.532v-2.3a7.86,7.86,0,0,0-3.806-6.718L13.942,33a7.109,7.109,0,0,0-7-.12A6.957,6.957,0,0,0,4.383,35.3l-.86,1.371A25.773,25.773,0,0,1,2,28C2,27.326,2.034,26.661,2.085,26ZM4.456,38.95l1.622-2.59a4.962,4.962,0,0,1,1.828-1.726,5.065,5.065,0,0,1,5.009.084l5.252,3.15a5.852,5.852,0,0,1,2.833,5v2.3A5.547,5.547,0,0,1,20.68,47,8.012,8.012,0,0,0,18.1,50.6c-.147.417-.267.839-.385,1.261A26.06,26.06,0,0,1,4.456,38.95ZM20,58a1,1,0,0,1-1-1,17.317,17.317,0,0,1,.985-5.738A6.186,6.186,0,0,1,24.626,47.3L30.2,46.18A3.929,3.929,0,0,0,35.217,48.8l.652,5.217A2,2,0,0,0,34,56v2Zm16,0V56H58l0,2Z " fill="#ffdb6e"/></svg>